<svg width="600" height="138" viewBox="0 0 285 39" fill="none" xmlns="http://www.w3.org/2000/svg">
<path d="M0.899858 38V3.09091H25.2408V9.94318H9.33736V17.1023H23.9965V23.9716H9.33736V31.1477H25.2408V38H0.899858ZM38.8601 23.0682V38H30.5249V11.8182H38.451V16.625H38.7408C39.3203 15.0227 40.3089 13.767 41.7067 12.858C43.1044 11.9375 44.7692 11.4773 46.701 11.4773C48.5419 11.4773 50.1385 11.892 51.4908 12.7216C52.8544 13.5398 53.9112 14.6875 54.6612 16.1648C55.4226 17.6307 55.7976 19.3466 55.7862 21.3125V38H47.451V22.9489C47.4624 21.4943 47.093 20.358 46.343 19.5398C45.6044 18.7216 44.576 18.3125 43.2578 18.3125C42.3828 18.3125 41.6101 18.5057 40.9396 18.892C40.2805 19.267 39.7692 19.8068 39.4055 20.5114C39.0533 21.2159 38.8714 22.0682 38.8601 23.0682ZM60.9467 38V11.8182H69.282V38H60.9467ZM65.1229 8.76705C63.9524 8.76705 62.9467 8.38068 62.1058 7.60795C61.2649 6.82386 60.8445 5.88068 60.8445 4.77841C60.8445 3.6875 61.2649 2.75568 62.1058 1.98295C62.9467 1.19886 63.9524 0.806816 65.1229 0.806816C66.3047 0.806816 67.3104 1.19886 68.1399 1.98295C68.9808 2.75568 69.4013 3.6875 69.4013 4.77841C69.4013 5.88068 68.9808 6.82386 68.1399 7.60795C67.3104 8.38068 66.3047 8.76705 65.1229 8.76705ZM82.9226 3.09091V38H74.5874V3.09091H82.9226ZM111.086 19.8125L103.433 20.017C103.353 19.4716 103.137 18.9886 102.785 18.5682C102.433 18.1364 101.972 17.8011 101.404 17.5625C100.847 17.3125 100.2 17.1875 99.4609 17.1875C98.495 17.1875 97.6712 17.3807 96.9893 17.767C96.3189 18.1534 95.9893 18.6761 96.0007 19.3352C95.9893 19.8466 96.1939 20.2898 96.6143 20.6648C97.0462 21.0398 97.8132 21.3409 98.9155 21.5682L103.961 22.5227C106.575 23.0227 108.518 23.8523 109.79 25.0114C111.075 26.1705 111.722 27.7045 111.734 29.6136C111.722 31.4091 111.188 32.9716 110.131 34.3011C109.086 35.6307 107.654 36.6648 105.836 37.4034C104.018 38.1307 101.938 38.4943 99.5973 38.4943C95.8587 38.4943 92.9098 37.7273 90.7507 36.1932C88.603 34.6477 87.3757 32.5795 87.0689 29.9886L95.3018 29.7841C95.4837 30.7386 95.9553 31.4659 96.7166 31.9659C97.478 32.4659 98.4496 32.7159 99.6314 32.7159C100.7 32.7159 101.569 32.517 102.239 32.1193C102.91 31.7216 103.251 31.1932 103.262 30.5341C103.251 29.9432 102.989 29.4716 102.478 29.1193C101.967 28.7557 101.165 28.4716 100.075 28.267L95.5064 27.3977C92.8814 26.9205 90.9268 26.0398 89.6428 24.7557C88.3587 23.4602 87.7223 21.8125 87.7337 19.8125C87.7223 18.0625 88.1882 16.5682 89.1314 15.3295C90.0746 14.0795 91.4155 13.125 93.1541 12.4659C94.8928 11.8068 96.9439 11.4773 99.3075 11.4773C102.853 11.4773 105.648 12.2216 107.694 13.7102C109.739 15.1875 110.87 17.2216 111.086 19.8125ZM128.059 38.4943C125.309 38.4943 122.945 37.9318 120.968 36.8068C119.002 35.6705 117.485 34.0909 116.417 32.0682C115.36 30.0341 114.832 27.6761 114.832 24.9943C114.832 22.3011 115.36 19.9432 116.417 17.9205C117.485 15.8864 119.002 14.3068 120.968 13.1818C122.945 12.0455 125.309 11.4773 128.059 11.4773C130.809 11.4773 133.167 12.0455 135.133 13.1818C137.11 14.3068 138.627 15.8864 139.684 17.9205C140.752 19.9432 141.286 22.3011 141.286 24.9943C141.286 27.6761 140.752 30.0341 139.684 32.0682C138.627 34.0909 137.11 35.6705 135.133 36.8068C133.167 37.9318 130.809 38.4943 128.059 38.4943ZM128.11 32.2045C129.11 32.2045 129.957 31.8977 130.65 31.2841C131.343 30.6705 131.871 29.8182 132.235 28.7273C132.61 27.6364 132.798 26.375 132.798 24.9432C132.798 23.4886 132.61 22.2159 132.235 21.125C131.871 20.0341 131.343 19.1818 130.65 18.5682C129.957 17.9545 129.11 17.6477 128.11 17.6477C127.076 17.6477 126.201 17.9545 125.485 18.5682C124.781 19.1818 124.241 20.0341 123.866 21.125C123.502 22.2159 123.32 23.4886 123.32 24.9432C123.32 26.375 123.502 27.6364 123.866 28.7273C124.241 29.8182 124.781 30.6705 125.485 31.2841C126.201 31.8977 127.076 32.2045 128.11 32.2045ZM153.891 23.0682V38H145.556V11.8182H153.482V16.625H153.772C154.352 15.0227 155.34 13.767 156.738 12.858C158.136 11.9375 159.8 11.4773 161.732 11.4773C163.573 11.4773 165.17 11.892 166.522 12.7216C167.886 13.5398 168.942 14.6875 169.692 16.1648C170.454 17.6307 170.829 19.3466 170.817 21.3125V38H162.482V22.9489C162.494 21.4943 162.124 20.358 161.374 19.5398C160.636 18.7216 159.607 18.3125 158.289 18.3125C157.414 18.3125 156.641 18.5057 155.971 18.892C155.312 19.267 154.8 19.8068 154.437 20.5114C154.085 21.2159 153.903 22.0682 153.891 23.0682ZM205.688 3.09091V38H198.529L184.637 17.8523H184.415V38H175.978V3.09091H183.239L196.978 23.2045H197.268V3.09091H205.688ZM223.232 38.4943C220.494 38.4943 218.13 37.9545 216.141 36.875C214.164 35.7841 212.641 34.233 211.573 32.2216C210.516 30.1989 209.988 27.7955 209.988 25.0114C209.988 22.3068 210.522 19.9432 211.59 17.9205C212.658 15.8864 214.164 14.3068 216.107 13.1818C218.05 12.0455 220.34 11.4773 222.977 11.4773C224.84 11.4773 226.545 11.767 228.09 12.3466C229.636 12.9261 230.971 13.7841 232.096 14.9205C233.221 16.0568 234.096 17.4602 234.721 19.1307C235.346 20.7898 235.658 22.6932 235.658 24.8409V26.9205H212.903V22.0795H227.903C227.891 21.1932 227.681 20.4034 227.272 19.7102C226.863 19.017 226.3 18.4773 225.585 18.0909C224.88 17.6932 224.067 17.4943 223.147 17.4943C222.215 17.4943 221.38 17.7045 220.641 18.125C219.903 18.5341 219.317 19.0966 218.886 19.8125C218.454 20.517 218.227 21.3182 218.204 22.2159V27.142C218.204 28.2102 218.414 29.1477 218.835 29.9545C219.255 30.75 219.852 31.3693 220.624 31.8125C221.397 32.2557 222.317 32.4773 223.386 32.4773C224.124 32.4773 224.795 32.375 225.397 32.1705C225.999 31.9659 226.516 31.6648 226.948 31.267C227.38 30.8693 227.704 30.3807 227.92 29.8011L235.573 30.0227C235.255 31.7386 234.556 33.233 233.477 34.5057C232.408 35.767 231.005 36.75 229.266 37.4545C227.528 38.1477 225.516 38.4943 223.232 38.4943ZM254.694 11.8182V17.9545H238.177V11.8182H254.694ZM241.637 5.54545H249.972V29.767C249.972 30.2784 250.052 30.6932 250.211 31.0114C250.381 31.3182 250.626 31.5398 250.944 31.6761C251.262 31.8011 251.643 31.8636 252.086 31.8636C252.404 31.8636 252.739 31.8352 253.092 31.7784C253.455 31.7102 253.728 31.6534 253.91 31.608L255.171 37.625C254.773 37.7386 254.211 37.8807 253.484 38.0511C252.768 38.2216 251.91 38.3295 250.91 38.375C248.955 38.4659 247.279 38.2386 245.881 37.6932C244.495 37.1364 243.433 36.2727 242.694 35.1023C241.967 33.9318 241.614 32.4602 241.637 30.6875V5.54545ZM270.887 38.4943C268.137 38.4943 265.773 37.9318 263.796 36.8068C261.83 35.6705 260.313 34.0909 259.245 32.0682C258.188 30.0341 257.66 27.6761 257.66 24.9943C257.66 22.3011 258.188 19.9432 259.245 17.9205C260.313 15.8864 261.83 14.3068 263.796 13.1818C265.773 12.0455 268.137 11.4773 270.887 11.4773C273.637 11.4773 275.995 12.0455 277.961 13.1818C279.938 14.3068 281.455 15.8864 282.512 17.9205C283.58 19.9432 284.114 22.3011 284.114 24.9943C284.114 27.6761 283.58 30.0341 282.512 32.0682C281.455 34.0909 279.938 35.6705 277.961 36.8068C275.995 37.9318 273.637 38.4943 270.887 38.4943ZM270.938 32.2045C271.938 32.2045 272.785 31.8977 273.478 31.2841C274.171 30.6705 274.7 29.8182 275.063 28.7273C275.438 27.6364 275.626 26.375 275.626 24.9432C275.626 23.4886 275.438 22.2159 275.063 21.125C274.7 20.0341 274.171 19.1818 273.478 18.5682C272.785 17.9545 271.938 17.6477 270.938 17.6477C269.904 17.6477 269.029 17.9545 268.313 18.5682C267.609 19.1818 267.069 20.0341 266.694 21.125C266.33 22.2159 266.148 23.4886 266.148 24.9432C266.148 26.375 266.33 27.6364 266.694 28.7273C267.069 29.8182 267.609 30.6705 268.313 31.2841C269.029 31.8977 269.904 32.2045 270.938 32.2045Z" fill="white"/>
</svg>
